<svg width="65" height="55" viewBox="0 0 65 55" fill="none" xmlns="http://www.w3.org/2000/svg">
<circle cx="2.5" cy="2.5" r="2.5" fill="white" fill-opacity="0.22"/>
<circle cx="12.5" cy="2.5" r="2.5" fill="white" fill-opacity="0.22"/>
<circle cx="22.5" cy="2.5" r="2.5" fill="white" fill-opacity="0.22"/>
<circle cx="32.5" cy="2.5" r="2.5" fill="white" fill-opacity="0.22"/>
<circle cx="42.5" cy="2.5" r="2.5" fill="white" fill-opacity="0.22"/>
<circle cx="52.5" cy="2.5" r="2.5" fill="white" fill-opacity="0.22"/>
<circle cx="62.5" cy="2.5" r="2.5" fill="white" fill-opacity="0.22"/>
<circle cx="2.5" cy="12.5" r="2.5" fill="white" fill-opacity="0.22"/>
<circle cx="12.5" cy="12.5" r="2.5" fill="white" fill-opacity="0.22"/>
<circle cx="22.5" cy="12.5" r="2.5" fill="white" fill-opacity="0.22"/>
<circle cx="32.5" cy="12.5" r="2.5" fill="white" fill-opacity="0.22"/>
<circle cx="42.5" cy="12.5" r="2.5" fill="white" fill-opacity="0.22"/>
<circle cx="52.5" cy="12.5" r="2.5" fill="white" fill-opacity="0.22"/>
<circle cx="62.5" cy="12.5" r="2.5" fill="white" fill-opacity="0.22"/>
<circle cx="2.5" cy="22.5" r="2.5" fill="white" fill-opacity="0.22"/>
<circle cx="12.5" cy="22.5" r="2.5" fill="white" fill-opacity="0.22"/>
<circle cx="22.5" cy="22.5" r="2.5" fill="white" fill-opacity="0.22"/>
<circle cx="32.5" cy="22.5" r="2.5" fill="white" fill-opacity="0.22"/>
<circle cx="42.5" cy="22.5" r="2.5" fill="white" fill-opacity="0.22"/>
<circle cx="52.5" cy="22.5" r="2.5" fill="white" fill-opacity="0.22"/>
<circle cx="62.5" cy="22.5" r="2.5" fill="white" fill-opacity="0.22"/>
<circle cx="2.5" cy="32.5" r="2.5" fill="white" fill-opacity="0.22"/>
<circle cx="12.5" cy="32.5" r="2.5" fill="white" fill-opacity="0.22"/>
<circle cx="22.5" cy="32.5" r="2.5" fill="white" fill-opacity="0.22"/>
<circle cx="32.5" cy="32.5" r="2.5" fill="white" fill-opacity="0.22"/>
<circle cx="42.5" cy="32.5" r="2.5" fill="white" fill-opacity="0.22"/>
<circle cx="52.5" cy="32.5" r="2.5" fill="white" fill-opacity="0.22"/>
<circle cx="62.5" cy="32.5" r="2.5" fill="white" fill-opacity="0.22"/>
<circle cx="2.5" cy="42.5" r="2.5" fill="white" fill-opacity="0.22"/>
<circle cx="12.5" cy="42.5" r="2.5" fill="white" fill-opacity="0.22"/>
<circle cx="22.5" cy="42.5" r="2.5" fill="white" fill-opacity="0.22"/>
<circle cx="32.5" cy="42.5" r="2.5" fill="white" fill-opacity="0.22"/>
<circle cx="42.5" cy="42.5" r="2.5" fill="white" fill-opacity="0.22"/>
<circle cx="52.5" cy="42.5" r="2.5" fill="white" fill-opacity="0.22"/>
<circle cx="62.5" cy="42.5" r="2.5" fill="white" fill-opacity="0.22"/>
<circle cx="2.5" cy="52.5" r="2.5" fill="white" fill-opacity="0.22"/>
<circle cx="12.5" cy="52.5" r="2.5" fill="white" fill-opacity="0.22"/>
<circle cx="22.5" cy="52.5" r="2.5" fill="white" fill-opacity="0.22"/>
<circle cx="32.5" cy="52.5" r="2.5" fill="white" fill-opacity="0.22"/>
<circle cx="42.5" cy="52.5" r="2.5" fill="white" fill-opacity="0.22"/>
<circle cx="52.5" cy="52.5" r="2.5" fill="white" fill-opacity="0.22"/>
<circle cx="62.5" cy="52.5" r="2.5" fill="white" fill-opacity="0.22"/>
</svg>
